# xmcd
#
# Track frame offsets:
# 150
# 13270
# 36141
# 52545
# 71643
# 91567
# 104188
# 122857
# 142182
# 155236
# 168707
# 177997
# 194573
#
# Disc length: 2770 seconds
#
# Revision: 0
# Processed by: cddbd v1.5.2PL0 Copyright (c) Steve Scherf et al.
# Submitted via: Axialis_AX_CDPlayer 2.6
#
DISCID=bf0ad00d
DTITLE=Bobby Bare - Down and Dirty
DYEAR=1900
DGENRE=
TTITLE0=Good For Nothing Blues
TTITLE1=Numbers
TTITLE2=Some Days Are Diamonds, Some Days Are Stone
TTITLE3=Tequila Sheila
TTITLE4=Rock Star's Lament
TTITLE5=Crazy Again
TTITLE6=Tecumseh Valley
TTITLE7=Blind Willie Harper
TTITLE8=Rough On The Living
TTITLE9=Down To My Last Come And Get Me
TTITLE10=Qualudes Again
TTITLE11=Goin' Back To Texas
TTITLE12=I Can't Watch The Movie Anymore
EXTD=www.bobbybare.net
EXTT0=
EXTT1=
EXTT2=
EXTT3=
EXTT4=
EXTT5=
EXTT6=
EXTT7=
EXTT8=
EXTT9=
EXTT10=
EXTT11=
EXTT12=
PLAYORDER=
